<?xml version="1.0" standalone="no"?>
<!DOCTYPE svg PUBLIC "-//W3C//DTD SVG 20010904//EN"
 "http://www.w3.org/TR/2001/REC-SVG-20010904/DTD/svg10.dtd">
<svg version="1.0" xmlns="http://www.w3.org/2000/svg"
 width="1563.000000pt" height="1444.000000pt" viewBox="0 0 1563.000000 1444.000000"
 preserveAspectRatio="xMidYMid meet">
<metadata>
Created by potrace 1.16, written by Peter Selinger 2001-2019
</metadata>
<g transform="translate(0.000000,1444.000000) scale(0.100000,-0.100000)"
fill="#000000" stroke="none">
<path d="M4602 12927 c-12 -13 -22 -32 -22 -43 1 -22 57 -54 95 -54 13 0 27
-5 30 -10 4 -6 28 -10 53 -9 26 1 59 -1 73 -5 17 -5 29 -3 34 3 3 6 22 18 41
26 19 8 34 18 34 22 0 13 -112 63 -140 63 -14 0 -38 7 -54 15 -45 24 -118 20
-144 -8z"/>
<path d="M5110 12893 c-41 -2 -79 -8 -84 -13 -6 -6 -19 -10 -29 -10 -16 0 -17
-3 -7 -15 7 -8 17 -15 23 -15 6 0 19 -7 29 -17 17 -15 19 -15 36 0 28 26 65
21 97 -13 16 -16 35 -30 42 -30 9 0 13 -15 13 -45 0 -34 4 -45 15 -45 16 0 65
-28 76 -43 7 -9 56 -23 129 -37 25 -5 65 -14 90 -19 124 -30 231 -45 238 -34
4 6 20 15 35 18 21 6 27 13 27 34 0 14 3 49 6 77 6 44 3 55 -15 73 -12 12 -34
21 -50 21 -17 0 -32 4 -35 9 -3 4 -49 16 -103 25 -54 10 -105 21 -114 26 -9 5
-34 12 -55 16 -22 3 -73 15 -114 25 -41 10 -97 18 -125 17 -27 -1 -84 -4 -125
-5z"/>
<path d="M6495 12610 c-23 -9 -44 -31 -60 -64 -9 -18 -20 -21 -84 -24 -42 -2
-79 2 -85 8 -5 5 -24 10 -41 10 -19 0 -39 8 -50 20 -10 11 -23 20 -30 20 -20
0 -42 -33 -48 -71 l-5 -37 61 -16 c96 -26 222 -55 332 -76 55 -11 113 -24 129
-30 16 -5 42 -10 58 -10 15 0 36 -4 46 -9 25 -12 144 -39 232 -51 41 -6 84
-15 95 -20 26 -12 258 -69 299 -74 11 -2 21 -8 22 -15 2 -7 0 -7 -3 -1 -3 7
-10 5 -17 -6 -12 -15 -14 -15 -29 1 -15 14 -18 14 -23 2 -4 -11 -20 -15 -50
-15 -25 0 -51 -6 -59 -12 -13 -11 -174 -48 -235 -55 -81 -8 -125 -20 -150 -41
-15 -13 -31 -24 -36 -24 -21 0 -174 -100 -224 -147 -32 -29 -61 -53 -66 -53
-5 0 -18 -12 -29 -26 -20 -26 -20 -26 -52 -7 l-32 18 -39 -38 c-21 -21 -45
-37 -52 -35 -8 2 -15 -3 -16 -9 -3 -26 -5 -28 -13 -15 -6 11 -14 8 -35 -14
-14 -16 -26 -34 -26 -41 0 -7 -7 -13 -16 -13 -13 0 -15 7 -9 37 4 21 12 41 18
45 6 4 8 10 4 15 -4 4 -19 -6 -32 -22 -25 -32 -44 -30 -26 4 7 13 8 22 1 26
-16 10 -27 -2 -46 -50 -19 -52 -37 -54 -42 -6 -3 24 -8 31 -20 29 -9 -2 -18
-12 -20 -23 -9 -55 -24 -95 -35 -95 -13 0 -77 -68 -77 -82 0 -12 -32 -6 -47 9
-7 6 -13 18 -13 26 0 8 -7 17 -15 21 -10 4 -17 -3 -20 -22 -4 -15 -11 -46 -17
-69 -16 -63 -7 -192 15 -208 23 -17 22 -78 -3 -134 -23 -50 -45 -70 -77 -71
-34 0 -89 -41 -113 -83 -24 -42 -40 -51 -113 -61 -34 -5 -56 -16 -76 -36 -19
-21 -49 -35 -105 -50 -43 -11 -85 -27 -93 -35 -8 -8 -18 -15 -22 -15 -4 0 -12
-10 -18 -23 -8 -17 -7 -30 3 -50 11 -20 12 -32 4 -47 -12 -22 -3 -97 12 -107
6 -3 14 0 18 7 13 20 37 4 41 -27 7 -50 -1 -80 -25 -91 -14 -6 -30 -31 -44
-66 -19 -50 -20 -62 -10 -100 11 -42 10 -48 -29 -127 -22 -46 -54 -106 -71
-134 -22 -36 -28 -54 -21 -66 16 -31 10 -42 -10 -18 l-20 24 -15 -35 c-8 -19
-26 -51 -41 -70 -21 -28 -23 -36 -10 -38 8 -2 15 -11 15 -21 0 -9 14 -28 31
-40 21 -16 29 -29 26 -42 -8 -29 6 -23 25 11 9 17 13 30 8 30 -12 0 -13 57 -2
64 7 4 22 -50 37 -133 7 -37 12 -35 20 6 l7 38 18 -37 c11 -22 19 -67 22 -112
3 -78 20 -115 38 -86 5 8 10 27 10 43 0 57 19 24 26 -45 4 -40 9 -67 11 -60 7
20 23 3 23 -25 0 -16 11 -35 27 -49 l28 -24 -3 -126 c-2 -69 -5 -133 -7 -142
-1 -10 -6 -78 -9 -152 -12 -239 -17 -312 -27 -337 -5 -13 -9 -49 -9 -80 l0
-55 -67 6 c-69 6 -356 15 -630 21 -105 2 -155 -1 -162 -9 -5 -6 -14 -42 -20
-80 -11 -76 -6 -92 32 -99 15 -3 12 -5 -10 -6 -29 -1 -33 -5 -35 -28 0 -16 -3
-39 -5 -53 -10 -61 -13 -213 -6 -300 7 -88 10 -95 30 -98 18 -3 28 9 58 65 19
37 56 104 81 148 25 44 55 100 66 125 11 25 29 56 39 69 11 13 19 34 19 47 0
14 10 29 23 37 22 14 224 47 304 50 50 2 73 -15 57 -41 -14 -21 -8 -62 11 -82
13 -13 15 -10 15 18 0 33 6 38 29 23 9 -6 26 -1 49 15 39 27 75 39 95 31 6 -2
32 -67 56 -143 58 -186 58 -186 70 -284 6 -47 12 -94 14 -105 3 -11 8 -45 11
-75 4 -30 13 -102 21 -160 58 -431 85 -693 85 -817 0 -73 12 -194 26 -263 3
-14 7 -40 9 -58 10 -93 12 -6 10 375 -1 230 1 427 6 438 6 16 8 12 8 -17 1
-46 15 -51 18 -5 7 131 11 176 18 202 4 17 8 36 8 43 0 6 4 12 7 12 4 0 10 18
14 40 3 22 11 40 16 40 7 0 7 7 0 20 -6 11 -7 20 -2 20 5 0 7 11 4 25 -2 15 0
25 7 25 6 0 11 -8 11 -17 0 -10 9 -29 19 -42 l18 -23 11 28 c7 16 13 45 14 64
1 30 28 91 28 65 0 -5 4 -5 10 1 5 5 11 28 13 51 5 50 20 69 120 153 27 22 55
40 63 40 8 0 22 4 32 9 44 24 93 42 100 37 12 -7 95 14 112 29 8 7 41 19 73
26 43 9 61 18 68 33 14 34 35 56 53 56 8 0 21 9 28 20 17 26 24 25 94 -10 32
-16 67 -30 77 -30 26 0 93 -36 109 -58 13 -20 66 -43 54 -24 -12 20 35 28 209
36 99 4 122 3 136 -10 16 -14 19 -14 38 5 18 18 22 19 27 6 10 -24 99 -20 135
6 16 11 37 18 45 15 12 -5 15 0 12 22 -2 21 1 27 16 27 11 0 21 6 24 13 2 6
10 12 18 12 8 0 14 7 14 15 0 9 -6 12 -17 8 -13 -5 -15 -2 -10 11 4 10 7 20 7
24 0 3 6 -2 14 -13 13 -18 14 -18 39 1 15 10 27 27 27 36 0 9 5 18 10 20 12 4
20 77 9 84 -4 2 -17 -12 -29 -31 -12 -19 -25 -35 -30 -35 -15 0 -21 33 -14 77
3 24 2 43 -2 43 -5 -1 -28 -5 -51 -9 -43 -8 -43 -8 -43 20 0 41 -24 37 -37 -6
-9 -29 -9 -35 3 -35 22 0 16 -28 -7 -35 -11 -4 -21 -5 -23 -3 -1 1 -9 20 -19
40 -11 25 -21 36 -31 32 -9 -3 -17 3 -21 15 -3 12 -12 21 -20 21 -8 0 -17 9
-20 21 -5 14 -12 18 -23 14 -30 -12 -37 -10 -36 7 1 14 -4 17 -25 11 -14 -3
-28 -9 -31 -12 -3 -3 -13 -7 -23 -9 -14 -2 -18 2 -15 20 2 18 -1 22 -16 20
-10 -2 -25 6 -33 17 -8 12 -19 19 -24 16 -5 -4 -9 10 -9 29 0 27 4 36 18 37
10 0 12 3 5 6 -7 2 -13 14 -13 25 0 16 -3 18 -13 9 -8 -6 -17 -8 -20 -4 -24
24 20 62 51 44 11 -7 13 -10 3 -11 -11 0 -11 -3 0 -16 12 -14 14 -14 26 2 11
15 10 21 -4 36 -10 11 -11 18 -5 18 7 0 12 7 12 15 0 9 9 15 21 15 12 0 37 14
56 30 19 17 38 28 44 25 5 -4 9 1 9 10 0 9 6 15 13 13 21 -8 13 -33 -10 -32
-18 0 -20 -3 -12 -18 8 -14 14 -16 28 -8 23 12 35 2 19 -17 -17 -21 -1 -27 27
-9 21 14 25 14 25 2 0 -22 17 -28 39 -14 15 9 23 10 32 1 8 -8 19 -8 40 0 33
13 36 22 12 35 -16 10 -21 27 -22 90 -1 27 -5 32 -26 32 -18 0 -25 5 -25 20 0
11 7 23 15 26 19 8 19 32 0 36 -13 3 -13 6 0 32 8 15 15 35 15 42 0 8 5 14 10
14 13 0 13 27 0 35 -5 3 -17 2 -27 -3 -10 -5 -32 -15 -48 -23 -25 -13 -35 -13
-60 -3 -45 19 -89 17 -110 -6 -14 -15 -21 -17 -32 -9 -7 6 -13 17 -13 24 0 6
-9 20 -20 30 -12 10 -19 24 -16 31 3 7 -2 10 -13 7 -13 -3 -20 2 -23 19 -3 13
-9 30 -12 39 -6 13 -2 17 16 18 48 2 68 6 68 13 0 5 12 6 28 3 22 -4 30 1 44
25 10 17 15 36 12 44 -3 7 2 19 11 26 8 7 15 9 15 5 0 -4 6 -3 13 2 6 5 28 10
47 12 61 5 100 64 60 92 -13 9 -12 10 2 5 11 -3 24 4 36 19 11 13 22 21 26 18
3 -3 6 -2 6 4 0 15 36 23 49 10 7 -7 16 -5 31 8 16 15 22 16 36 5 12 -11 17
-11 23 -2 5 9 16 8 44 -6 28 -13 34 -21 27 -32 -8 -12 -10 -13 -10 -1 0 8 -3
11 -7 8 -8 -9 27 -47 44 -47 7 0 13 7 13 15 0 8 12 17 28 21 53 12 57 14 74
44 20 36 48 40 48 8 l1 -23 19 24 c11 13 20 19 20 13 0 -5 9 -12 20 -15 11 -3
19 -11 18 -19 -2 -7 3 -12 10 -10 8 1 16 -6 19 -16 2 -10 13 -23 23 -30 14 -9
21 -8 31 4 11 13 10 15 -7 12 -13 -2 -20 3 -22 20 -2 12 -10 22 -20 22 -13 0
-10 6 11 28 23 22 29 25 37 12 6 -9 5 -17 -3 -22 -17 -12 22 -40 45 -32 10 3
18 1 18 -5 0 -19 29 -12 42 9 17 27 40 26 36 -2 -2 -13 -9 -22 -17 -20 -7 1
-11 -3 -8 -10 2 -7 8 -12 13 -12 5 1 24 5 42 9 28 6 32 4 32 -15 0 -11 8 -24
18 -27 9 -4 23 -15 30 -25 7 -10 21 -18 31 -18 20 0 35 -36 20 -46 -5 -3 8
-23 31 -45 22 -21 40 -43 40 -49 0 -5 9 -10 21 -10 11 0 18 3 15 8 -2 4 9 8
25 8 36 2 37 -3 4 -16 -18 -7 -25 -17 -25 -35 0 -14 5 -25 10 -25 6 0 10 5 10
10 0 6 7 10 16 10 13 0 15 -7 11 -35 -4 -26 -2 -35 9 -35 8 0 13 -6 11 -12 -3
-17 56 -11 66 7 4 7 25 16 48 20 32 6 43 3 53 -11 7 -9 18 -14 24 -11 6 5 8 0
5 -12 -3 -12 -13 -18 -28 -17 -13 0 -21 4 -19 8 2 4 -1 10 -8 14 -7 4 -10 4
-6 -1 4 -4 3 -14 -3 -21 -15 -18 0 -64 21 -64 11 0 22 -5 25 -10 10 -17 26 0
20 21 -7 21 4 47 14 32 3 -6 18 -13 33 -16 33 -8 48 11 24 29 -13 9 -14 13 -4
17 9 4 6 8 -8 12 -28 9 -50 55 -32 66 22 14 58 10 58 -6 0 -8 9 -15 20 -15 11
0 20 -7 20 -15 0 -9 15 -22 33 -30 18 -8 25 -14 15 -15 -10 0 -18 -5 -18 -10
0 -6 -13 -8 -30 -5 -24 4 -30 2 -31 -12 0 -10 -2 -28 -3 -40 -1 -12 0 -22 3
-21 25 2 41 -4 41 -17 0 -8 7 -15 15 -15 8 0 15 5 15 10 0 19 16 10 39 -21 26
-35 23 -44 -13 -35 -18 4 -24 11 -19 23 4 11 3 14 -5 9 -7 -4 -12 -13 -12 -21
0 -7 -6 -15 -12 -18 -9 -3 -8 -7 4 -12 16 -6 16 -9 1 -31 -9 -15 -11 -24 -4
-24 6 0 11 -4 11 -10 0 -5 -6 -10 -14 -10 -9 0 -12 -8 -8 -25 3 -16 11 -25 24
-25 15 0 18 -5 13 -21 -6 -19 -5 -20 15 -9 18 10 25 8 48 -17 l27 -28 3 25 c7
44 42 70 42 31 0 -11 8 -26 18 -33 11 -7 21 -19 23 -26 6 -19 49 14 49 38 0
10 4 22 10 25 7 5 8 90 0 90 -1 0 -3 11 -4 25 -2 16 7 38 25 59 15 19 25 39
22 45 -3 6 -3 8 2 4 10 -9 45 9 45 23 0 6 -4 8 -9 5 -13 -8 -44 31 -35 45 5 9
11 7 21 -6 11 -16 13 -16 13 -3 0 8 7 21 15 28 11 9 12 16 4 26 -14 17 -3 50
19 59 14 5 14 7 2 15 -25 16 -50 11 -60 -12 -8 -20 -9 -18 -9 14 -1 30 3 38
22 44 28 8 37 22 36 54 l-1 25 -11 -27 c-6 -16 -17 -28 -25 -28 -10 0 -12 5
-6 18 4 9 7 27 7 40 -1 15 5 22 19 22 17 0 19 6 16 52 -3 46 -6 54 -30 66 -16
7 -28 18 -28 25 0 7 -4 6 -10 -3 -6 -10 -10 -11 -10 -2 0 6 -6 12 -14 12 -8 0
-17 8 -20 18 -9 27 -6 37 10 34 20 -4 17 14 -3 23 -16 7 -14 9 7 15 14 4 24
13 22 20 -2 8 3 10 15 5 10 -4 29 -7 43 -6 14 1 35 -4 47 -10 20 -11 26 -9 43
11 11 13 18 31 15 41 -3 10 1 19 10 23 9 3 15 0 15 -9 0 -17 16 -20 24 -6 3 5
15 7 26 4 20 -5 24 3 21 37 -2 12 0 13 7 1 6 -7 14 -11 20 -7 5 3 13 -1 16
-10 3 -8 10 -13 15 -9 6 3 7 13 4 21 -5 13 -1 15 18 9 43 -12 189 -87 189 -96
0 -5 6 -9 13 -9 7 0 29 -14 47 -30 19 -17 44 -33 56 -36 12 -3 31 -19 43 -34
19 -26 20 -35 11 -76 -6 -26 -7 -50 -3 -53 26 -19 34 -40 22 -59 -10 -16 -8
-27 9 -64 12 -25 22 -64 22 -89 0 -48 18 -122 43 -182 9 -21 20 -74 23 -117 4
-49 11 -78 18 -77 6 1 10 -9 8 -25 -2 -14 3 -30 10 -35 24 -15 41 -67 39 -121
-2 -38 3 -61 16 -80 16 -24 18 -46 16 -178 -1 -83 -11 -220 -22 -305 -18 -139
-20 -204 -17 -674 2 -313 7 -532 13 -550 8 -25 11 -11 17 85 4 63 12 149 17
190 5 41 12 109 14 150 12 173 27 314 35 335 5 13 9 40 8 62 0 51 30 299 42
343 6 19 11 46 13 60 1 14 6 30 10 37 4 6 10 40 14 74 3 35 15 78 26 96 15 26
17 42 12 71 -4 20 -7 89 -5 152 5 200 4 283 -3 355 -4 39 -9 160 -11 269 -4
144 -10 218 -23 267 -14 58 -15 71 -4 93 14 26 11 131 -10 311 -10 82 -9 95
11 152 l21 62 -20 40 c-22 43 -27 76 -12 85 10 7 52 -39 131 -142 30 -39 61
-71 68 -72 7 0 15 -7 18 -15 4 -8 9 -15 13 -15 4 0 33 32 64 71 l58 70 -62 92
c-35 51 -88 126 -119 167 -82 109 -93 154 -59 237 13 31 12 34 -21 68 -18 19
-42 38 -53 41 -16 5 -18 13 -14 47 3 23 -1 66 -9 96 -10 38 -11 58 -3 67 6 8
7 19 1 31 -5 10 -17 35 -25 55 -9 20 -30 47 -47 59 -31 23 -40 42 -17 37 22
-5 22 17 -1 27 -12 5 -24 18 -27 27 -3 10 -8 27 -11 38 -3 13 -1 20 9 20 17 0
30 27 17 35 -5 3 -12 0 -15 -6 -5 -6 -19 3 -39 24 -29 33 -39 47 -68 99 -7 12
-17 28 -23 36 -18 24 -126 132 -133 132 -4 0 -28 20 -54 43 -25 24 -65 55 -87
70 -28 19 -44 37 -48 57 -3 17 -11 30 -18 30 -22 0 -75 31 -75 44 0 16 -45 58
-53 50 -10 -10 -37 16 -37 36 0 15 7 16 63 8 34 -4 69 -11 77 -15 8 -3 21 -5
29 -4 8 1 17 -2 21 -8 5 -10 46 -17 116 -20 11 -1 27 -12 34 -26 9 -16 16 -21
21 -14 4 7 18 9 38 4 17 -4 29 -10 26 -15 -9 -15 44 -17 65 -3 21 15 27 48 10
58 -5 3 -10 14 -10 24 0 24 -144 161 -169 161 -11 0 -26 7 -34 15 -8 7 -28 17
-43 21 -16 4 -43 15 -60 25 -18 10 -46 20 -62 22 -17 3 -46 10 -64 15 -18 6
-52 13 -76 16 -24 3 -48 9 -55 13 -6 4 -29 10 -52 14 -22 4 -60 12 -85 18 -25
6 -70 16 -100 22 -60 13 -146 35 -198 51 -21 6 -37 19 -43 35 -5 13 -15 23
-22 20 -14 -5 -63 18 -90 41 -16 14 -19 14 -27 2 -8 -13 -14 -13 -40 2 -20 12
-37 15 -48 9 -80 -40 -87 -41 -168 -20 -43 11 -85 24 -93 29 -19 10 -67 19
-136 25 -27 3 -59 7 -70 9 -58 13 -173 36 -190 39 -11 2 -27 7 -35 10 -8 4
-67 19 -130 34 -89 21 -146 28 -254 31 -137 3 -166 10 -166 41 0 6 -20 11 -45
11 -25 0 -45 -4 -45 -10 0 -5 -15 -10 -33 -10 -25 0 -42 9 -72 40 -21 22 -45
40 -52 40 -7 0 -13 4 -13 8 0 9 -125 42 -162 42 -15 0 -37 4 -50 9 -30 12 -86
27 -173 47 -38 8 -77 17 -85 19 -8 2 -24 0 -35 -5z"/>
<path d="M13902 11541 c-8 -4 -13 -11 -13 -15 3 -17 0 -20 -9 -6 -7 12 -12 11
-30 -5 -17 -15 -20 -28 -18 -64 l3 -46 53 -3 c64 -4 82 8 82 54 0 41 -47 99
-68 85z"/>
<path d="M13917 11363 c-4 -3 -7 -17 -7 -30 0 -12 -4 -23 -10 -23 -5 0 -10
-20 -10 -44 0 -60 24 -66 105 -26 54 27 64 29 87 18 15 -7 30 -24 33 -37 3
-13 30 -47 58 -75 30 -30 66 -80 84 -117 31 -62 140 -189 164 -189 13 0 15 -4
-109 180 -121 179 -181 260 -231 313 -33 35 -38 37 -96 37 -34 0 -65 -3 -68
-7z"/>
<path d="M13559 11284 c-14 -7 -47 -36 -72 -63 -26 -27 -57 -52 -69 -56 -37
-10 -71 -28 -108 -56 -19 -14 -43 -29 -52 -32 -10 -4 -18 -13 -18 -20 0 -8 -9
-22 -20 -32 -26 -23 -28 -96 -3 -116 9 -8 22 -27 30 -44 33 -73 80 -123 123
-131 47 -10 102 21 125 70 11 23 29 55 41 71 12 17 25 41 29 54 4 13 28 43 53
66 45 42 46 44 36 82 -5 24 -17 42 -31 48 -12 5 -24 18 -27 28 -7 29 5 91 21
100 7 4 13 17 13 27 0 24 -31 25 -71 4z"/>
<path d="M4729 9557 c-36 -45 -70 -81 -76 -80 -6 1 -16 -4 -22 -11 -8 -9 -3
-29 19 -74 16 -34 32 -62 35 -62 3 0 14 19 25 42 14 31 16 44 7 50 -12 7 -4
27 53 127 54 94 32 99 -41 8z"/>
<path d="M7394 9153 c1 -19 -3 -34 -10 -37 -19 -7 -13 -66 6 -66 12 -1 12 -3
-2 -14 -10 -7 -15 -16 -11 -20 4 -4 -1 -4 -11 0 -14 5 -17 3 -14 -12 2 -14 11
-18 33 -16 17 1 42 2 58 2 15 0 27 3 27 8 0 4 12 8 28 8 20 -1 27 4 27 19 0
15 7 20 30 20 17 0 36 -4 43 -9 7 -5 12 -4 12 2 0 6 -9 14 -20 17 -11 3 -20
10 -20 15 0 9 -51 6 -68 -4 -8 -5 -10 -2 -6 8 4 11 0 16 -11 16 -11 0 -15 5
-12 15 4 8 2 17 -4 21 -5 3 -7 14 -4 25 7 20 -18 28 -30 9 -10 -16 -33 -12
-39 8 -3 9 -4 3 -2 -15z"/>
<path d="M7722 9158 c-6 -13 -11 -17 -11 -10 -2 27 -21 10 -21 -19 0 -17 -8
-38 -17 -47 -16 -16 -15 -17 1 -20 17 -4 17 -4 0 -16 -21 -16 -27 -46 -10 -46
7 0 21 -9 31 -20 14 -15 21 -17 32 -9 15 13 18 53 3 44 -6 -4 -10 6 -10 22 0
23 2 25 11 13 8 -12 9 -9 5 13 -4 15 -2 27 3 27 6 0 8 8 4 18 -3 9 5 4 18 -13
13 -16 27 -33 31 -36 5 -3 6 -13 2 -22 -3 -9 -2 -17 4 -17 16 0 37 31 38 59 1
23 -2 26 -30 26 -21 0 -31 5 -31 15 0 19 -23 60 -34 60 -4 0 -13 -10 -19 -22z"/>
<path d="M7450 8926 c0 -8 6 -16 13 -19 7 -3 5 -7 -8 -12 -38 -13 -50 -22 -55
-44 -3 -12 -9 -21 -15 -19 -5 2 -9 6 -8 9 1 4 -7 5 -17 2 -21 -6 -28 -23 -9
-23 6 0 8 -9 4 -21 -5 -14 -2 -25 6 -30 11 -8 11 -11 -3 -20 -18 -10 -25 -39
-10 -39 27 0 72 34 72 54 0 25 30 54 50 48 7 -3 19 3 26 12 6 9 16 16 20 15
28 -5 36 1 24 16 -7 9 -19 14 -26 11 -8 -3 -18 4 -24 14 -8 15 -8 20 3 20 7 0
18 -5 24 -11 7 -7 13 -7 17 -1 9 16 -24 44 -45 39 -11 -3 -19 -1 -19 4 0 5 -4
9 -10 9 -5 0 -10 -6 -10 -14z"/>
<path d="M8850 8670 c13 -9 8 -14 -12 -12 -3 1 -12 -5 -18 -13 -7 -8 -19 -15
-26 -15 -8 0 -19 -11 -24 -25 -6 -16 -14 -23 -25 -19 -8 3 -15 10 -15 15 0 5
-5 9 -10 9 -6 0 -10 -8 -8 -17 3 -15 -4 -18 -39 -15 -35 2 -41 -1 -37 -13 4
-8 2 -15 -3 -15 -5 0 -35 -25 -67 -55 l-58 -56 -18 22 c-16 17 -26 20 -59 14
-22 -3 -42 -13 -45 -20 -3 -10 -15 -12 -38 -9 -29 5 -35 2 -50 -24 -10 -16
-34 -44 -53 -61 -19 -17 -36 -33 -36 -36 0 -2 -4 -18 -9 -34 -6 -20 -5 -32 3
-35 9 -5 9 -8 0 -12 -7 -3 -13 -12 -13 -20 0 -8 -9 -14 -20 -14 -11 0 -20 5
-20 10 0 6 -9 1 -20 -10 -11 -11 -17 -26 -14 -35 4 -8 1 -15 -5 -15 -6 0 -11
-6 -11 -13 0 -8 -14 -26 -31 -41 -35 -31 -28 -50 20 -59 23 -5 28 -10 24 -25
-5 -22 39 -72 64 -72 13 0 13 -3 3 -15 -10 -12 -10 -18 0 -30 10 -13 10 -19
-2 -33 -9 -9 -14 -22 -11 -28 2 -6 -3 -17 -12 -24 -12 -10 -16 -9 -21 3 -4 12
-10 13 -28 3 -13 -6 -31 -19 -40 -29 -10 -9 -27 -18 -39 -19 -12 0 -35 -2 -52
-3 -16 -2 -34 0 -39 3 -20 12 -58 7 -66 -8 -9 -15 -11 -13 -14 12 -2 17 -25
22 -30 6 -3 -7 -7 -30 -11 -51 -4 -23 -13 -41 -23 -44 -9 -3 -25 -14 -34 -24
-12 -12 -29 -16 -60 -14 -24 2 -50 4 -59 4 -9 1 -28 12 -42 25 -23 21 -29 23
-69 13 -57 -13 -167 -15 -176 -2 -9 13 -28 18 -69 18 -25 1 -33 5 -33 19 0 24
-11 22 -34 -6 -17 -21 -23 -22 -65 -13 -25 5 -52 18 -59 28 -7 11 -17 19 -22
19 -5 0 -29 13 -52 29 -24 16 -57 33 -73 36 -17 4 -43 13 -60 20 -70 30 -108
35 -276 35 -187 0 -336 -12 -365 -29 -11 -6 -35 -17 -54 -26 -39 -17 -106 -66
-162 -120 -33 -32 -49 -40 -70 -36 -14 2 -9 -27 7 -42 13 -13 13 -16 -1 -27
-8 -7 -12 -15 -9 -18 3 -3 -1 -13 -9 -21 -16 -18 -38 -100 -30 -113 4 -7 -10
-10 -32 -7 -4 0 -10 -5 -15 -12 -8 -13 -70 -23 -66 -10 2 8 -26 51 -34 51 -16
0 -17 -45 -2 -62 15 -17 15 -18 -4 -18 -16 0 -23 -10 -33 -47 -6 -27 -15 -57
-20 -69 -13 -32 -1 -74 21 -74 24 0 25 -20 2 -21 -14 0 -15 -2 -3 -6 27 -11
63 -50 51 -57 -19 -12 -13 -36 7 -29 24 9 33 26 19 35 -9 6 -8 10 3 18 11 7
16 5 18 -5 4 -19 31 -20 38 -1 6 15 53 13 84 -4 16 -9 20 -8 20 6 0 10 5 14
15 10 13 -4 68 32 87 58 3 5 27 10 52 11 25 0 49 4 52 8 4 4 18 0 31 -9 13 -8
36 -14 51 -12 23 3 27 7 25 33 -1 17 0 24 3 18 8 -18 24 -16 24 2 0 9 -12 18
-30 22 -22 4 -30 11 -30 28 0 12 -3 25 -6 28 -4 4 -8 22 -10 40 -3 34 9 47 56
60 18 5 40 -16 40 -38 0 -12 6 -10 23 10 20 23 24 25 49 13 16 -7 28 -17 28
-22 0 -5 8 -2 18 6 9 9 45 19 80 22 35 4 69 9 77 12 7 3 22 -3 33 -14 13 -13
24 -17 35 -10 11 6 23 1 41 -17 21 -21 29 -23 44 -14 16 10 24 6 55 -25 22
-22 34 -42 31 -51 -4 -8 -1 -15 5 -15 6 0 11 -4 11 -10 0 -5 -9 -10 -20 -10
-11 0 -20 -4 -20 -9 0 -5 -13 -12 -29 -16 -16 -3 -35 -13 -42 -21 -14 -17 -1
-18 38 -3 15 6 57 13 93 15 35 3 70 9 76 15 7 5 26 14 44 19 25 7 32 6 37 -8
9 -22 23 -32 51 -32 25 0 30 -15 7 -24 -8 -3 -15 -11 -15 -18 0 -7 -9 -19 -20
-26 -11 -7 -20 -18 -20 -26 0 -8 -6 -16 -14 -19 -14 -6 -31 -55 -22 -65 8 -8
56 -11 56 -4 0 4 11 7 24 7 21 0 23 -4 21 -40 -2 -49 -13 -85 -31 -106 -8 -9
-16 -31 -19 -49 -2 -19 -12 -38 -21 -43 -13 -8 -14 -11 -3 -18 8 -5 9 -9 3 -9
-7 0 -9 -11 -6 -25 3 -19 10 -25 31 -25 15 0 36 -6 47 -14 20 -16 19 -22 -29
-111 -31 -58 -37 -73 -42 -106 -3 -20 -16 -49 -29 -64 -13 -16 -30 -39 -38
-53 -7 -14 -34 -47 -60 -75 -27 -27 -48 -52 -48 -56 0 -9 -38 -41 -50 -41 -15
0 -80 -41 -80 -51 0 -5 -9 -9 -19 -9 -11 0 -22 -9 -26 -19 -3 -11 -19 -22 -36
-26 -24 -6 -30 -11 -26 -26 4 -16 1 -19 -14 -14 -11 4 -19 3 -18 -2 5 -32 -2
-44 -23 -38 -15 4 -19 3 -10 -3 15 -10 7 -18 -40 -42 -48 -23 -44 -1 7 45 51
47 55 70 8 40 -31 -20 -63 -51 -63 -61 0 -3 -9 -17 -20 -31 -11 -14 -20 -34
-20 -43 0 -10 -7 -23 -15 -30 -8 -7 -13 -16 -10 -20 3 -4 -2 -13 -10 -20 -19
-16 -19 -50 0 -50 8 0 15 -6 15 -14 0 -16 21 -26 56 -26 13 0 33 -9 44 -20 11
-11 31 -22 46 -26 14 -4 28 -13 31 -20 3 -8 16 -14 28 -14 15 0 26 -8 30 -20
4 -11 20 -27 36 -35 16 -9 29 -22 29 -29 0 -30 -24 -34 -129 -26 -57 4 -110 6
-117 3 -17 -6 -47 -85 -42 -109 2 -11 13 -23 26 -29 12 -5 20 -16 17 -22 -2
-8 3 -13 13 -13 10 0 27 -7 38 -15 12 -8 24 -11 28 -8 3 4 3 -8 0 -25 -5 -25
-3 -32 9 -32 8 0 18 -6 21 -12 2 -7 3 -4 2 7 -2 11 -6 28 -11 38 -11 25 1 33
20 13 12 -12 21 -13 34 -6 18 9 31 4 31 -12 0 -5 -6 -6 -12 -3 -7 4 -6 1 3 -7
9 -7 14 -18 12 -25 -3 -7 5 -18 16 -25 22 -13 29 -38 11 -38 -5 0 -10 -9 -10
-20 0 -17 4 -18 25 -10 18 7 28 5 39 -5 8 -8 21 -15 30 -15 20 0 30 -17 14
-23 -8 -4 -7 -6 4 -6 17 -1 80 -52 139 -113 20 -21 40 -38 45 -38 5 0 24 -14
43 -30 30 -27 50 -35 74 -31 4 1 17 -5 28 -13 13 -9 34 -12 59 -9 21 3 52 1
69 -5 19 -7 31 -7 31 -1 0 5 7 9 15 9 8 0 15 4 15 9 0 4 30 12 68 15 138 15
142 16 142 44 1 14 2 14 12 -3 6 -11 12 -21 14 -23 1 -2 12 2 24 8 18 10 26 8
45 -10 12 -11 33 -22 46 -23 26 -1 49 -19 49 -36 0 -14 77 -14 85 -1 12 20 36
-10 25 -30 -9 -17 -5 -19 43 -19 28 0 65 -4 82 -9 19 -5 42 -4 67 5 20 7 43
10 51 7 13 -4 57 76 57 105 0 7 5 9 10 6 10 -6 12 -1 14 54 1 29 6 35 42 50
23 9 60 33 83 54 22 20 49 37 59 37 9 0 33 10 52 22 42 27 153 58 181 51 11
-3 40 2 64 11 56 22 96 7 106 -39 14 -64 27 -85 54 -85 14 0 35 6 46 13 17 10
23 10 26 0 3 -7 11 -13 19 -13 7 0 11 -6 8 -14 -8 -20 14 -30 31 -16 24 20 18
56 -12 78 -21 16 -25 24 -17 32 8 8 14 9 18 1 5 -7 13 -7 26 1 17 11 17 13 2
24 -14 10 -14 14 -3 28 7 9 20 16 27 16 18 0 18 16 1 23 -13 5 -16 51 -4 64 4
3 7 15 7 25 0 23 9 23 27 1 14 -17 14 -17 9 0 -3 10 0 17 7 17 8 0 7 4 -3 10
-13 9 -12 13 5 26 14 11 15 15 5 14 -30 -4 -42 0 -37 14 3 8 1 17 -6 20 -7 2
-4 5 6 5 9 1 17 5 17 11 0 5 -6 7 -14 4 -8 -3 -17 -1 -20 4 -3 6 1 13 9 16 9
3 19 16 24 28 8 21 10 22 16 4 5 -11 3 -21 -5 -26 -9 -5 -9 -9 -1 -14 6 -4 9
-12 6 -17 -4 -5 -1 -9 4 -9 6 0 11 -7 11 -15 0 -8 5 -15 10 -15 6 0 10 -11 10
-24 0 -31 28 -56 41 -35 5 8 9 22 9 32 0 9 4 17 9 17 9 0 26 75 23 100 -2 8
-4 46 -7 83 -2 37 -14 88 -25 114 -25 57 -81 127 -120 150 -17 9 -32 25 -35
34 -3 10 -19 20 -35 24 -15 3 -31 13 -34 21 -3 8 -15 14 -26 14 -11 0 -23 7
-26 15 -4 8 -11 15 -18 15 -6 0 -42 25 -80 55 -38 30 -75 55 -82 55 -7 0 -16
10 -20 23 -4 12 -32 45 -64 74 -45 41 -60 63 -73 105 -15 50 -19 70 -33 159
-7 39 15 72 41 63 8 -4 15 -1 15 5 0 6 -7 11 -15 11 -8 0 -15 5 -15 10 0 6 3
9 8 8 15 -3 62 14 57 22 -6 10 16 27 35 27 8 0 27 4 43 8 21 5 27 4 27 -8 0
-8 -6 -18 -12 -20 -9 -4 -10 -6 -1 -6 18 -1 43 28 37 44 -4 8 -1 15 5 15 6 0
11 -4 11 -10 0 -5 12 -10 28 -10 15 0 42 -4 60 -9 20 -6 32 -6 32 0 0 5 11 9
24 9 14 0 28 5 31 10 4 7 13 7 26 0 15 -9 19 -7 19 5 0 8 -7 15 -15 15 -8 0
-15 7 -15 15 0 8 5 15 10 15 6 0 10 -4 10 -10 0 -5 7 -10 15 -10 18 0 20 -21
3 -39 -11 -10 -9 -15 6 -27 28 -20 33 -18 40 21 8 41 36 49 36 10 0 -14 5 -25
11 -25 16 0 39 26 40 47 0 10 3 13 6 6 8 -21 44 -15 50 7 6 24 10 25 29 6 12
-13 12 -16 -2 -24 -9 -5 -15 -13 -14 -18 2 -5 -8 -15 -21 -21 -21 -11 -22 -13
-4 -13 15 0 16 -3 7 -12 -15 -15 -16 -28 -2 -28 6 0 10 7 10 15 0 8 4 15 10
15 5 0 7 6 4 13 -6 15 23 17 46 2 9 -5 15 -4 18 3 2 7 11 12 21 12 23 0 22 47
-2 65 -13 10 -15 14 -5 18 8 3 6 6 -5 6 -13 1 -17 7 -15 24 2 18 -2 22 -24 22
-37 0 -41 7 -44 75 -2 53 0 60 17 60 11 0 22 7 25 15 4 8 12 15 20 15 19 0 18
6 -8 32 -13 13 -30 21 -39 20 -10 -2 -19 6 -23 20 -9 34 -8 36 14 43 11 4 18
10 16 13 -2 4 2 15 9 26 10 13 20 16 37 10 20 -6 21 -5 9 10 -12 14 -11 16 8
16 11 0 21 4 21 9 0 9 -47 20 -117 27 -24 2 -52 8 -61 12 -25 13 -103 6 -113
-9 -8 -12 -11 -11 -19 1 -8 12 -10 11 -10 -6 0 -13 -8 -24 -20 -27 -17 -4 -20
-1 -18 16 2 18 -2 22 -25 23 -16 1 -31 -5 -34 -12 -3 -9 -12 -10 -34 -2 -16 5
-29 14 -29 19 0 4 -7 6 -15 3 -11 -4 -20 5 -30 30 -12 29 -20 36 -35 31 -12
-4 -26 1 -38 13 -11 11 -27 24 -35 28 -13 8 -14 13 -2 42 13 30 35 44 35 22 0
-12 20 -13 39 -1 12 8 12 12 2 25 -8 9 -12 16 -10 17 2 0 25 2 52 4 44 2 47 1
47 -22 0 -22 2 -24 15 -13 22 18 101 7 129 -19 27 -25 46 -27 46 -5 0 15 8 16
60 11 37 -4 60 -3 60 3 0 6 6 10 14 10 8 0 16 7 20 15 3 9 18 15 35 15 20 0
41 10 61 30 17 16 42 33 55 36 29 7 124 -3 144 -15 9 -6 22 -1 37 12 26 22 33
50 11 41 -7 -2 -37 15 -66 38 -29 24 -54 41 -54 38 -4 -9 -97 87 -97 100 0 26
78 4 126 -37 88 -75 93 -78 105 -66 14 14 6 28 -48 86 -53 57 -82 74 -167 95
-38 9 -72 23 -74 31 -3 8 -1 11 4 8 5 -2 15 2 22 10 12 12 9 13 -25 7 -65 -13
-88 -11 -88 8 0 10 -4 18 -10 18 -5 0 -10 -6 -10 -12 0 -9 -22 -13 -72 -14
-49 -1 -71 2 -66 8 4 7 -4 8 -23 3 -37 -10 -165 -12 -170 -3 -5 8 -21 4 -69
-17 -26 -12 -92 -26 -120 -26 -17 0 -39 7 -62 19 -13 7 -23 9 -23 5 0 -4 -5 0
-11 10 -5 9 -7 21 -4 27 7 11 -28 31 -47 27 -7 -2 -9 -2 -5 1 4 2 3 10 -4 18
-9 11 -6 16 12 23 13 4 29 6 35 4 7 -2 15 0 19 6 4 8 12 8 26 1 16 -9 19 -7
19 10 0 26 12 26 30 0 15 -20 15 -20 33 2 12 15 17 17 14 7 -5 -14 4 -18 40
-24 24 -3 47 -4 51 -1 3 3 -2 6 -11 6 -11 0 -14 5 -11 15 5 12 10 13 20 4 7
-6 29 -11 49 -12 22 -1 35 -6 35 -14 0 -7 5 -13 10 -13 6 0 10 7 10 15 0 9 8
18 18 21 24 8 93 35 117 46 11 5 50 10 88 12 61 2 67 1 67 -17 0 -15 5 -18 23
-13 27 6 54 -10 59 -36 3 -16 6 -16 29 -4 27 14 82 27 137 32 18 2 37 6 42 9
15 9 12 25 -5 25 -8 0 -15 5 -15 11 0 6 9 9 20 6 17 -4 20 -2 15 14 -4 11 -2
19 4 19 6 0 11 -5 11 -11 0 -5 8 -9 18 -7 9 1 22 0 27 -4 6 -3 32 -4 59 -1 35
4 50 11 53 24 4 15 9 16 29 7 17 -8 31 -8 48 0 19 9 25 8 28 -2 2 -9 10 -11
22 -6 19 6 19 7 -1 27 -12 12 -26 31 -33 42 -13 25 -30 28 -30 5 0 -9 -7 -14
-17 -12 -12 2 -18 13 -18 31 1 15 -3 27 -7 27 -4 0 -8 -4 -8 -10 0 -5 -8 -10
-18 -10 -21 0 -44 64 -28 80 12 12 -99 124 -134 135 -17 5 -19 10 -9 21 13 15
10 17 -41 18 -32 1 -35 4 -40 36 -4 29 -9 35 -28 33 -12 -2 -25 4 -28 12 -3 8
-26 17 -50 21 -44 6 -51 15 -45 62 2 12 -16 17 -51 14 -12 -1 -18 5 -18 17 0
27 -40 31 -63 7 -9 -11 -20 -16 -24 -13 -3 4 -12 2 -20 -4 -10 -9 -13 -8 -13
4 0 9 5 19 10 22 19 12 10 25 -14 19 -16 -4 -25 -1 -29 10 -4 9 -14 16 -24 16
-15 0 -16 -2 -3 -10z m-1127 -1233 c4 3 7 -1 7 -9 0 -9 11 -19 25 -22 14 -4
25 -12 25 -20 0 -22 -11 -26 -35 -10 -21 14 -22 13 -18 -10 4 -17 13 -26 30
-28 22 -3 26 -9 28 -46 2 -23 0 -40 -5 -37 -5 3 -20 1 -35 -5 -17 -7 -24 -7
-20 0 3 6 -4 10 -16 10 -12 0 -31 7 -41 17 -17 15 -18 15 -18 0 0 -10 -7 -17
-16 -17 -11 0 -14 5 -10 16 3 9 6 20 6 25 0 5 7 9 16 9 13 0 14 3 4 14 -6 8
-18 12 -26 9 -18 -7 -18 1 1 37 17 33 26 36 58 19 17 -9 19 -9 11 0 -16 17 -6
65 11 51 6 -5 15 -7 18 -3z m271 -71 c14 -21 31 -64 38 -95 11 -49 21 -64 85
-128 41 -40 81 -73 89 -73 8 0 17 -7 20 -15 4 -8 12 -15 19 -15 6 0 27 -7 44
-16 24 -12 31 -21 28 -35 -3 -11 0 -19 8 -19 21 0 25 -26 19 -108 -7 -81 -20
-111 -64 -149 -16 -13 -31 -38 -34 -57 -5 -28 -2 -38 25 -67 81 -86 130 -259
94 -329 -21 -41 -61 -79 -102 -96 -32 -14 -71 -8 -73 11 -3 45 -31 63 -110 72
-66 7 -102 -9 -122 -53 -7 -14 -20 -24 -32 -24 -11 0 -36 -15 -56 -34 -19 -19
-60 -48 -90 -64 -48 -26 -70 -49 -83 -87 -2 -6 -10 -4 -20 4 -9 7 -15 17 -12
21 9 14 -17 63 -46 90 -16 14 -30 38 -33 53 -9 51 -44 93 -105 126 -49 26 -70
31 -125 31 -76 0 -134 -20 -160 -55 -11 -15 -29 -25 -43 -25 -30 0 -93 59 -94
89 -1 12 -1 31 -2 44 -1 26 33 88 45 81 4 -3 22 2 40 10 18 8 58 20 88 26 30
6 68 18 83 26 16 8 34 14 41 14 15 0 45 51 39 66 -5 16 91 114 112 114 8 0 38
11 65 25 28 14 50 22 50 18 0 -3 11 4 25 17 21 20 29 22 57 13 18 -5 32 -15
30 -22 -2 -9 11 -11 47 -8 37 4 57 12 74 31 13 14 27 23 30 19 4 -3 7 0 7 8 0
8 9 31 20 52 19 36 19 37 1 37 -19 0 -31 18 -31 47 0 9 -8 23 -18 32 -27 24
-31 43 -24 102 4 31 3 73 -4 99 -6 26 -7 58 -3 75 5 16 14 52 21 78 7 27 25
64 41 83 28 33 29 34 52 16 13 -9 35 -34 49 -56z m-484 -1201 c0 -8 9 -15 20
-15 11 0 20 -6 20 -13 0 -7 9 -18 20 -25 14 -8 20 -21 18 -38 -3 -26 7 -36 47
-49 l20 -6 -20 -16 c-14 -11 -16 -17 -7 -20 15 -6 16 -37 2 -63 -9 -16 -14
-17 -42 -8 -24 9 -33 8 -36 0 -6 -20 -29 -13 -46 12 -8 14 -26 26 -38 28 -17
2 -24 11 -26 33 -2 16 -8 33 -13 36 -10 6 14 83 33 106 6 7 8 16 5 19 -8 8 15
33 31 34 6 0 12 -7 12 -15z m951 -236 c26 -16 53 -27 61 -24 8 3 37 -9 64 -27
42 -28 96 -58 114 -63 26 -7 61 -31 65 -45 3 -9 17 -22 30 -28 21 -10 25 -18
25 -55 0 -49 32 -102 56 -93 16 6 17 4 8 -18 -3 -9 -10 -16 -16 -16 -5 0 -6 5
-2 11 4 7 1 10 -7 7 -8 -3 -22 -1 -33 4 -19 10 -36 5 -175 -60 -29 -14 -74
-27 -100 -30 -25 -3 -51 -12 -57 -20 -12 -17 -85 -42 -122 -42 -20 0 -22 -3
-16 -40 7 -42 -1 -116 -15 -138 -4 -7 -24 -17 -44 -22 -33 -7 -39 -5 -56 18
l-19 26 -50 -27 c-60 -32 -114 -35 -160 -7 l-32 20 -10 -24 c-12 -33 -62 -47
-165 -47 -114 0 -125 7 -125 76 0 29 -4 56 -9 60 -11 6 -21 -45 -18 -85 3 -33
-39 -53 -120 -58 -117 -8 -173 18 -173 78 0 36 -2 36 -39 9 -74 -54 -211 -21
-211 51 0 36 -9 42 -34 25 -30 -22 -51 -18 -90 15 -46 41 -39 63 25 79 l51 13
-31 22 c-29 20 -38 54 -13 49 7 -2 12 4 12 12 0 8 7 15 15 15 24 0 30 -4 29
-17 -3 -20 12 -15 30 10 14 21 16 21 29 5 8 -10 17 -15 20 -11 4 3 7 1 7 -6 0
-7 5 -9 12 -5 15 9 111 9 126 0 18 -11 40 5 46 35 4 23 11 29 33 30 26 0 78
17 59 18 -5 1 6 11 25 24 28 19 36 21 47 10 17 -16 24 -16 54 0 14 7 49 11 84
9 l61 -4 18 -49 c11 -33 16 -67 13 -99 -4 -37 -1 -50 9 -55 22 -8 36 4 23 20
-13 15 -5 71 11 80 5 4 9 2 9 -3 0 -14 94 -36 98 -23 2 7 10 8 22 1 12 -6 28
-7 43 -1 17 7 32 5 50 -4 14 -7 49 -12 81 -10 31 1 59 -1 62 -6 9 -15 34 -10
34 6 0 8 5 15 11 15 6 0 9 7 6 15 -4 8 -2 17 3 20 18 11 11 54 -10 65 -15 8
-19 17 -14 36 5 20 2 26 -15 31 -11 3 -21 11 -21 17 0 15 68 77 72 65 2 -5 22
-2 46 6 24 9 48 12 54 9 7 -5 9 13 6 57 -3 35 -10 65 -16 67 -13 4 -16 34 -6
45 4 3 32 6 63 6 44 -1 66 -7 102 -30z"/>
<path d="M3995 8500 c-4 -6 -29 -9 -57 -7 -39 2 -51 0 -55 -12 -2 -9 -9 -24
-14 -33 -5 -10 -9 -71 -9 -136 0 -95 -4 -124 -18 -152 -17 -32 -19 -65 -18
-416 1 -349 3 -384 19 -401 9 -11 17 -32 17 -46 0 -15 4 -27 9 -27 5 0 12 -39
16 -87 4 -49 11 -92 15 -98 10 -13 27 -103 36 -188 3 -37 10 -70 15 -72 4 -3
11 -27 14 -53 8 -64 35 -154 52 -170 10 -10 13 -55 13 -182 0 -102 4 -171 10
-175 6 -3 10 -14 10 -24 0 -10 7 -24 15 -31 7 -6 17 -32 21 -56 3 -24 10 -44
15 -44 5 0 9 -7 9 -15 0 -8 7 -15 15 -15 8 0 15 -6 15 -13 0 -16 81 -97 97
-97 7 0 16 -7 21 -16 6 -11 30 -18 78 -23 76 -8 264 7 264 20 0 32 156 -26
186 -70 8 -11 21 -21 28 -21 8 0 19 -7 26 -16 20 -23 78 -44 125 -44 25 0 48
-6 54 -14 7 -8 42 -19 79 -26 78 -13 184 -1 212 25 9 8 29 15 43 15 15 0 27 5
27 10 0 6 13 10 28 10 29 0 62 -26 62 -48 0 -7 7 -12 15 -12 12 0 15 -18 15
-104 0 -59 4 -108 10 -111 6 -3 10 -18 10 -33 0 -15 6 -37 14 -48 8 -11 18
-38 22 -59 4 -22 18 -51 30 -64 18 -19 24 -37 24 -71 0 -25 4 -50 9 -55 5 -6
11 -114 13 -241 2 -148 7 -236 15 -245 7 -9 12 -126 15 -348 4 -241 8 -336 16
-339 15 -5 16 -128 2 -137 -6 -4 -10 -60 -10 -133 -1 -70 -5 -145 -10 -167 -5
-22 -15 -66 -22 -97 -8 -31 -17 -60 -21 -64 -14 -15 -2 -144 14 -144 4 0 3 15
-2 32 -5 18 -9 49 -9 68 1 40 24 79 35 59 4 -6 2 -14 -4 -18 -13 -8 -16 -66
-7 -130 5 -38 3 -47 -19 -67 -14 -13 -25 -18 -25 -12 0 6 -9 3 -20 -7 -11 -10
-20 -24 -20 -32 0 -8 -12 -26 -27 -41 -31 -30 -66 -92 -52 -92 5 0 9 -5 9 -12
0 -6 -3 -8 -6 -5 -4 3 -16 1 -28 -5 -11 -7 -24 -11 -28 -10 -5 1 -8 -3 -8 -8
0 -6 -7 -10 -16 -10 -8 0 -12 -4 -9 -10 3 -5 1 -10 -5 -10 -6 0 -8 -5 -4 -12
5 -8 0 -9 -15 -5 -16 4 -26 -1 -37 -19 -9 -13 -20 -21 -25 -18 -5 3 -9 1 -9
-5 0 -6 -11 -13 -25 -17 -14 -3 -30 -15 -36 -25 -5 -11 -16 -19 -24 -19 -7 0
-60 -27 -117 -61 -193 -114 -305 -158 -369 -145 -16 3 -31 1 -34 -4 -3 -6 -17
-10 -30 -10 -28 0 -110 -34 -119 -49 -4 -6 -15 -11 -25 -11 -10 0 -24 -7 -31
-16 -17 -19 -75 -44 -105 -44 -12 0 -30 -8 -39 -19 -9 -10 -34 -21 -54 -25
-20 -3 -55 -15 -77 -26 -21 -11 -46 -20 -55 -20 -24 0 -88 -25 -107 -41 -10
-9 -33 -21 -50 -29 -18 -7 -33 -18 -33 -25 0 -7 -21 -18 -46 -25 -25 -7 -51
-21 -57 -32 -7 -11 -23 -18 -42 -18 -20 0 -42 -10 -63 -30 -19 -17 -44 -30
-60 -30 -14 0 -37 -10 -51 -23 -15 -13 -45 -29 -68 -37 -25 -7 -43 -20 -46
-31 -4 -14 -14 -19 -41 -19 -21 0 -43 -7 -54 -18 -10 -10 -45 -24 -77 -31 -33
-7 -76 -20 -95 -28 -41 -19 -280 -253 -280 -275 0 -8 -9 -23 -20 -33 -11 -10
-20 -25 -20 -33 0 -8 -11 -27 -25 -44 -14 -16 -25 -42 -25 -58 0 -16 -4 -32
-10 -35 -6 -3 -10 -27 -10 -52 0 -36 -4 -46 -19 -50 -20 -5 -36 -56 -24 -76 4
-6 1 -7 -7 -2 -10 6 -11 -1 -7 -31 4 -23 3 -31 -1 -20 -7 16 -11 14 -27 -20
-10 -21 -19 -54 -19 -72 0 -26 -5 -34 -23 -38 -13 -4 -24 -14 -25 -23 -1 -9
-2 -23 -3 -31 -3 -30 -16 -58 -37 -76 -16 -15 -15 -11 6 20 14 22 23 42 20 45
-4 3 -9 0 -12 -8 -3 -8 -23 -34 -45 -58 -38 -41 -42 -43 -95 -43 -50 0 -60 4
-103 40 -26 22 -51 40 -54 40 -4 0 -24 13 -44 29 -47 37 -95 45 -99 16 -2 -13
17 -40 58 -80 50 -49 60 -56 60 -38 0 32 14 36 44 12 14 -11 42 -23 61 -26 20
-3 38 -10 41 -14 9 -16 77 -10 98 8 15 13 14 10 -3 -10 -20 -21 -33 -27 -67
-27 -24 0 -46 5 -49 10 -9 14 -72 13 -81 -2 -7 -10 19 -38 118 -125 20 -17 39
-29 42 -26 3 4 6 1 6 -6 0 -7 5 -9 12 -5 7 5 9 2 5 -9 -3 -9 1 -18 9 -21 22
-8 23 -8 20 11 -2 10 8 32 20 49 13 17 24 34 24 37 0 4 14 36 30 72 17 36 30
70 30 76 0 6 8 23 18 37 16 23 87 180 112 247 4 11 25 53 45 94 52 101 58 115
99 201 41 88 121 182 180 212 22 11 62 40 88 63 30 27 112 75 224 130 97 48
200 102 229 121 52 33 256 134 271 134 7 0 369 174 416 200 10 6 22 10 27 10
5 0 38 13 73 29 132 61 255 114 318 136 124 44 206 83 370 175 91 50 172 97
180 104 8 6 32 19 53 29 20 9 37 21 37 26 0 5 16 30 35 56 l36 46 -31 -5 c-25
-4 -30 -1 -26 11 3 8 6 17 6 20 0 3 6 0 14 -6 11 -9 16 -9 22 0 5 8 3 9 -6 4
-9 -6 -11 -4 -5 5 6 9 4 11 -6 5 -8 -5 -6 1 5 13 10 12 23 19 29 15 6 -3 7 -1
3 5 -4 7 0 12 11 13 10 0 13 3 6 6 -7 2 -13 9 -13 14 0 6 6 7 13 3 6 -4 9 -4
5 1 -8 9 20 40 29 32 3 -3 -2 -13 -11 -22 -20 -21 -20 -29 0 -21 8 3 12 2 9
-4 -11 -17 7 -11 21 8 12 16 13 15 14 -5 0 -13 4 -23 8 -23 15 0 32 24 32 46
0 23 16 95 50 224 16 63 20 117 23 330 2 140 0 242 -4 225 -5 -25 -7 -21 -8
23 0 28 2 52 7 52 8 0 8 148 -1 157 -4 3 -1 15 4 26 8 14 8 22 0 27 -14 8 -4
190 10 190 5 0 9 8 9 18 0 15 -2 15 -11 2 -8 -11 -9 -8 -3 15 3 17 9 71 11
120 4 75 8 94 26 114 l22 24 -27 -7 c-21 -5 -28 -3 -28 9 0 8 4 15 8 15 4 0 7
66 5 148 -3 147 7 229 22 187 4 -11 12 -33 17 -48 6 -15 12 -126 13 -250 3
-280 3 -287 15 -287 6 0 10 7 10 16 0 9 9 18 20 21 16 4 20 16 23 67 l3 61 1
-71 c0 -81 15 -118 43 -109 10 3 21 1 25 -5 3 -5 16 -10 27 -10 20 0 21 3 13
68 -8 75 -8 78 1 177 3 43 12 74 20 81 13 10 10 18 -15 56 -16 24 -39 52 -50
62 -12 11 -21 27 -21 38 0 10 -4 18 -10 18 -5 0 -10 7 -10 14 0 8 -11 27 -25
42 -14 15 -25 35 -25 44 0 10 -7 23 -14 30 -15 11 -52 108 -48 123 1 4 -2 7
-8 7 -13 0 -41 56 -32 64 3 4 0 11 -8 16 -11 7 -15 27 -14 75 0 54 -3 66 -17
70 -11 4 -16 12 -12 21 3 8 -1 14 -10 14 -9 0 -16 8 -17 18 0 9 -1 28 -2 42
-1 14 2 46 6 72 7 45 7 46 -15 41 -21 -6 -22 -4 -16 42 8 56 -6 141 -38 240
-13 39 -27 87 -30 108 -8 42 -23 57 -31 30 -28 -91 -74 -127 -151 -119 -45 5
-54 3 -63 -14 -6 -11 -20 -25 -32 -31 -25 -13 -386 -23 -403 -11 -6 4 -83 92
-170 196 l-159 190 -11 -90 c-12 -93 -21 -119 -52 -145 -17 -15 -138 -49 -174
-49 -47 0 -115 107 -157 245 -130 431 -233 1041 -248 1470 -7 195 15 551 41
655 26 108 31 174 10 140z"/>
<path d="M13 7154 c-4 -33 -8 -277 -8 -544 0 -393 4 -523 19 -685 10 -110 19
-201 20 -202 2 -2 1 329 -1 735 -3 405 -8 741 -13 746 -4 4 -12 -18 -17 -50z"/>
<path d="M6114 4672 c8 -20 17 -59 21 -87 6 -49 18 -117 69 -380 13 -71 27
-155 31 -185 4 -30 10 -68 15 -85 17 -55 51 -368 44 -399 -3 -17 -12 -34 -18
-38 -13 -9 -70 -11 -78 -2 -3 3 1 26 8 51 22 72 19 85 -17 81 -22 -2 -35 -11
-46 -33 -9 -16 -20 -37 -24 -45 -69 -125 -84 -188 -83 -350 0 -109 4 -160 18
-205 63 -216 192 -445 411 -733 137 -180 258 -290 489 -442 235 -155 270 -169
423 -170 68 0 84 3 92 18 6 9 14 23 19 29 4 7 72 35 149 62 78 27 171 63 207
80 36 17 68 31 71 31 3 0 49 25 103 56 53 32 114 66 134 78 107 61 166 98 293
184 77 52 154 107 172 121 18 14 58 46 89 71 137 108 237 196 354 312 296 293
480 531 583 751 99 212 97 494 -6 584 -18 16 -38 42 -46 58 -23 49 -25 9 -6
-179 24 -236 11 -324 -65 -436 -44 -65 -126 -147 -155 -156 -11 -4 -22 -9 -25
-13 -3 -3 -25 -16 -50 -29 -79 -40 -94 -50 -125 -85 -31 -35 -65 -54 -65 -37
0 6 -7 10 -15 10 -8 0 -12 -6 -9 -14 3 -9 -4 -16 -21 -20 -17 -4 -23 -11 -19
-19 4 -7 -2 -4 -14 7 -22 19 -29 15 -36 -26 -1 -7 -7 -22 -14 -33 -10 -18 -11
-19 -12 -2 0 11 -6 17 -12 14 -7 -2 -12 -16 -10 -31 2 -19 -1 -26 -9 -21 -8 5
-9 1 -4 -15 5 -17 -1 -30 -28 -59 -19 -20 -37 -45 -39 -55 -1 -11 -12 -20 -23
-21 -11 -1 -33 -13 -49 -28 -16 -15 -32 -24 -37 -21 -5 3 -9 -3 -9 -14 0 -20
-42 -62 -63 -62 -15 0 -37 -20 -37 -33 0 -5 8 -6 18 -3 16 6 16 5 0 -8 -10 -7
-18 -19 -18 -25 0 -7 -6 -11 -12 -9 -15 5 -38 -15 -38 -32 0 -7 -6 -10 -14 -7
-7 3 -23 -7 -35 -24 -12 -16 -26 -27 -32 -24 -5 4 -9 2 -9 -2 0 -5 -7 -18 -15
-29 -15 -18 -15 -18 -13 0 2 10 -3 21 -11 24 -8 3 -11 0 -7 -7 11 -16 -3 -51
-20 -51 -8 0 -14 -6 -14 -14 0 -8 -8 -12 -22 -9 -15 2 -34 -6 -51 -21 -16 -14
-42 -28 -58 -31 -16 -4 -29 -12 -29 -18 0 -9 -2 -9 -8 -1 -4 7 -19 12 -34 12
-21 0 -28 -5 -28 -20 0 -13 4 -17 13 -12 13 8 -11 -26 -27 -38 -11 -7 -74 1
-98 14 -13 6 -18 5 -18 -7 0 -25 -71 -64 -98 -54 -20 8 -23 5 -28 -21 -4 -16
-10 -27 -14 -25 -5 3 -10 -1 -13 -7 -3 -10 -7 -10 -19 0 -9 7 -23 10 -32 6
-11 -4 -16 -1 -16 12 -1 18 -1 18 -12 -1 -16 -29 -16 -29 -34 -14 -15 12 -16
11 -9 -10 6 -20 4 -22 -14 -16 -17 5 -20 3 -14 -11 4 -12 3 -15 -5 -10 -7 4
-12 2 -12 -6 0 -9 -3 -9 -10 2 -8 13 -11 12 -23 -4 -14 -19 -15 -19 -45 2 -36
27 -41 27 -42 5 -4 -78 -12 -95 -24 -48 -8 30 -22 33 -29 5 -3 -11 -11 -20
-17 -20 -7 0 -10 7 -6 16 6 15 4 15 -19 0 -14 -9 -36 -14 -50 -12 -14 3 -39 1
-57 -4 -20 -6 -36 -6 -43 0 -14 11 -45 3 -45 -11 0 -5 -9 -9 -20 -9 -11 0 -20
4 -20 8 0 5 -26 10 -57 11 -32 1 -59 6 -61 11 -2 6 -10 10 -17 10 -8 0 -19 9
-25 20 -9 16 -8 20 5 20 8 0 15 9 15 21 0 13 -4 18 -12 13 -6 -4 -16 0 -22 8
-6 8 -18 17 -26 20 -9 3 -16 18 -18 33 -1 16 -7 34 -14 42 -9 11 -7 17 9 28
21 15 22 55 2 55 -5 0 -9 11 -9 24 0 14 -9 31 -21 39 -13 9 -16 17 -10 21 7 5
3 23 -13 54 -13 26 -21 52 -19 59 2 6 -1 14 -7 18 -8 5 -8 11 0 20 13 16 4 39
-11 30 -5 -4 -9 1 -9 9 0 9 -9 16 -20 16 -13 0 -20 7 -20 20 0 11 -6 20 -13
20 -8 0 -20 18 -27 39 -7 23 -21 41 -31 44 -11 3 -19 13 -19 22 0 20 -29 75
-50 93 -11 10 -11 12 -1 6 9 -5 12 -3 7 4 -4 7 -13 12 -21 12 -7 0 -16 11 -19
25 -3 13 -18 35 -32 49 -15 13 -24 30 -22 36 2 7 -6 24 -19 38 -13 14 -23 34
-23 45 0 16 -3 17 -15 7 -12 -10 -15 -9 -15 4 0 9 -7 19 -15 22 -9 4 -14 14
-13 23 2 11 -3 15 -19 13 -14 -2 -23 4 -28 18 -4 11 -18 28 -31 37 -14 9 -23
21 -21 27 2 6 -2 16 -10 21 -7 6 -15 30 -18 54 -2 24 -11 51 -19 60 -9 10 -16
25 -16 35 0 9 -9 29 -21 45 -21 28 -27 48 -28 89 -1 12 -7 22 -14 22 -8 0 -12
13 -11 38 1 20 -2 44 -7 53 -11 21 -19 78 -22 154 -3 74 -10 87 -44 79 -18 -5
-24 -4 -19 5 4 6 13 9 19 5 7 -3 4 1 -6 9 -11 10 -18 33 -21 72 -2 31 -9 62
-15 68 -17 17 -13 27 11 27 19 0 20 2 6 18 -9 9 -14 25 -13 34 2 10 -1 20 -6
24 -5 3 -9 -3 -9 -12 0 -26 -8 -13 -15 24 -3 21 -1 32 6 32 8 0 8 4 2 13 -15
18 -24 77 -13 77 6 0 10 5 10 10 0 6 -6 10 -14 10 -17 0 -31 35 -20 51 3 6 2
14 -3 18 -14 8 -27 91 -15 91 17 0 62 -27 56 -33 -3 -3 3 -16 15 -28 12 -13
21 -26 21 -31 0 -4 7 -8 15 -8 8 0 15 9 15 20 0 11 -7 20 -15 20 -8 0 -15 8
-15 18 0 11 -9 23 -19 28 -19 9 -121 139 -121 154 0 4 -7 10 -15 14 -13 4 -13
1 -1 -32z"/>
<path d="M5826 4295 c-11 -141 -14 -452 -5 -466 10 -16 25 15 34 69 7 45 17
66 49 114 14 21 16 37 11 68 -4 22 -12 43 -17 46 -8 5 -9 -7 -4 -36 6 -38 5
-42 -9 -30 -13 11 -15 9 -15 -15 0 -16 -3 -26 -6 -23 -5 6 -7 125 -4 233 0 22
-5 63 -13 90 l-14 50 -7 -100z"/>
<path d="M6527 4243 c-12 -19 7 -65 30 -74 25 -9 26 -11 42 -75 8 -28 19 -45
38 -55 34 -17 62 -49 63 -69 0 -8 9 -28 19 -44 12 -18 18 -40 15 -61 -3 -22 2
-39 16 -55 11 -13 20 -26 20 -29 0 -4 14 -12 32 -19 17 -6 29 -15 25 -18 -3
-4 2 -19 13 -34 11 -16 20 -37 20 -48 0 -11 7 -22 15 -26 8 -3 12 -12 9 -21
-4 -10 0 -15 10 -15 9 0 16 5 16 10 0 22 16 8 32 -29 18 -41 43 -71 59 -71 6
0 8 4 5 8 -3 5 8 9 24 10 17 0 30 -4 30 -10 0 -6 9 -3 20 7 12 10 18 25 16 32
-7 17 18 29 72 36 51 6 62 14 42 28 -13 8 -12 12 4 24 22 16 40 20 32 6 -3 -4
5 -6 18 -4 28 6 69 -29 60 -50 -6 -16 22 -31 38 -21 5 3 7 12 4 20 -4 10 2 14
18 14 14 0 26 -6 29 -12 3 -10 12 -9 37 5 36 20 65 23 54 5 -4 -6 1 -17 11
-25 18 -13 18 -13 -1 -14 -11 0 -14 -3 -6 -6 7 -3 19 1 28 8 12 10 12 14 2 21
-8 6 -4 7 12 3 14 -4 35 -16 46 -27 17 -15 24 -17 30 -7 4 7 3 14 -4 17 -8 2
-8 10 0 27 19 42 107 21 91 -22 -3 -7 -8 -11 -12 -9 -4 3 -13 1 -21 -4 -11 -7
-8 -11 13 -19 28 -11 83 -5 104 11 6 5 33 11 58 12 26 2 52 9 58 15 6 6 29 11
52 11 22 0 47 5 55 10 13 9 13 11 0 20 -10 7 -11 10 -2 11 6 1 17 2 22 3 6 0
15 7 19 15 5 8 18 12 32 9 13 -3 35 -2 49 1 l25 7 -22 12 c-27 15 -30 42 -5
42 10 0 28 7 41 16 12 9 37 18 54 19 27 2 32 7 33 29 1 30 -10 32 -51 6 -70
-44 -101 -54 -183 -56 -46 -2 -95 1 -109 7 -17 6 -39 5 -71 -4 -61 -17 -90
-11 -104 19 -6 13 -19 24 -29 24 -9 0 -24 3 -32 6 -9 3 -16 -3 -20 -16 -5 -18
-10 -20 -29 -14 -13 5 -35 7 -50 6 -22 -1 -29 4 -34 23 -3 13 -3 29 2 36 5 8
3 9 -6 4 -19 -12 -30 15 -23 58 4 24 2 37 -6 37 -6 0 -11 6 -11 14 0 8 -13 24
-29 35 l-29 21 -21 -26 c-18 -22 -20 -35 -15 -80 6 -50 5 -54 -15 -54 -14 0
-21 -6 -21 -18 0 -28 -45 -46 -65 -26 -8 9 -15 24 -15 35 0 11 -4 17 -10 14
-5 -3 -10 -20 -10 -37 0 -23 -4 -29 -16 -24 -9 3 -22 6 -30 6 -8 0 -14 6 -14
13 0 16 -36 18 -72 5 -22 -8 -33 -5 -65 16 -21 15 -55 29 -77 33 -27 4 -50 18
-77 47 -22 23 -50 42 -62 43 -13 1 -45 23 -72 50 -74 71 -166 155 -203 183
-17 14 -32 30 -32 36 0 15 -27 37 -33 27z"/>
<path d="M8902 4074 c-8 -9 -9 -14 -2 -14 6 0 8 -4 5 -10 -9 -15 -25 -12 -25
5 0 26 -30 30 -46 6 -8 -11 -22 -21 -30 -21 -8 0 -26 -11 -39 -24 -13 -13 -34
-23 -48 -23 -26 0 -129 -62 -122 -74 3 -3 16 -4 30 -1 15 2 25 0 25 -7 0 -7
-4 -10 -9 -6 -16 9 -31 -31 -25 -63 4 -19 12 -29 22 -28 23 1 33 31 27 75 -4
30 -4 32 4 14 12 -28 13 -28 73 -6 41 15 49 21 54 50 8 40 10 42 60 44 54 3
93 32 90 66 -3 30 -24 38 -44 17z"/>
</g>
</svg>
